<svg xmlns="http://www.w3.org/2000/svg" viewBox="0 0 1024 1024" width="1024" height="1024">
  <defs>
    <radialGradient id="bg" cx="50%" cy="45%" r="70%">
      <stop offset="0%" stop-color="#1a103a"/>
      <stop offset="100%" stop-color="#05030f"/>
    </radialGradient>
  </defs>
  <circle cx="512" cy="512" r="512" fill="url(#bg)"/>
  <circle cx="512" cy="512" r="310" fill="none" stroke="#4c1d95" stroke-width="110" opacity="0.5"/>
  <path d="M 811.4,592.2 A 310,310 0 1 1 793.0,381.0"
    fill="none" stroke="#8b5cf6" stroke-width="72" stroke-linecap="round"/>
  <path d="M 811.4,592.2 A 310,310 0 1 1 793.0,381.0"
    fill="none" stroke="#c4b5fd" stroke-width="24" stroke-linecap="round" opacity="0.35"/>
  <path d="M 800,580 A 310,310 0 1 1 800,388"
    fill="none" stroke="#e9d5ff" stroke-width="3"
    stroke-dasharray="16 32" stroke-linecap="round" opacity="0.30"/>
  <path d="M 778.6,583.4 Q 790,560 834.7,505.3 Q 862,550 844.2,601.0 Z" fill="#a78bfa"/>
  <path d="M 834.7,505.3 Q 845,518 855,530"
    fill="none" stroke="#2d1b69" stroke-width="5" stroke-linecap="round"/>
  <circle cx="847" cy="545" r="12" fill="#0d0020"/>
  <circle cx="847" cy="545" r="7"  fill="#e879f9"/>
  <circle cx="843" cy="541" r="3"  fill="#ffffff" opacity="0.95"/>
  <line x1="834.7" y1="505.3" x2="848" y2="478" stroke="#f472b6" stroke-width="5" stroke-linecap="round"/>
  <line x1="848" y1="478" x2="860" y2="464" stroke="#f472b6" stroke-width="4" stroke-linecap="round"/>
  <line x1="848" y1="478" x2="835" y2="461" stroke="#f472b6" stroke-width="4" stroke-linecap="round"/>
  <path d="M 762.2,395.4 Q 793,405 814.2,426.3 Q 793,395 823.8,366.6 Z" fill="#8b5cf6"/>
  <g opacity="0.45" fill="#a78bfa">
    <circle cx="168" cy="195" r="3.5"/>
    <circle cx="382" cy="148" r="2.5"/>
    <circle cx="816" cy="158" r="3"/>
    <circle cx="148" cy="488" r="3"/>
    <circle cx="245" cy="618" r="2.5"/>
    <circle cx="680" cy="866" r="2.5"/>
    <circle cx="302" cy="848" r="3"/>
    <circle cx="886" cy="692" r="2.5"/>
    <circle cx="730" cy="192" r="2.5"/>
    <circle cx="175" cy="330" r="2.5"/>
  </g>
</svg>
